HIERARCHY
ROOT Hips
{
 OFFSET 0.000000 0.000000 0.000000
 CHANNELS 6 Xposition Yposition Zposition Yrotation Xrotation Zrotation
 JOINT Chest
 {
  OFFSET 0.000000 9.585900 0.002600
  CHANNELS 3 Yrotation Xrotation Zrotation
  JOINT Chest2
  {
   OFFSET 0.000000 9.601200 -0.005300
   CHANNELS 3 Yrotation Xrotation Zrotation
   JOINT Chest3
   {
    OFFSET 0.000000 9.561800 0.000000
    CHANNELS 3 Yrotation Xrotation Zrotation
    JOINT Chest4
    {
     OFFSET 0.000000 9.552100 0.000000
     CHANNELS 3 Yrotation Xrotation Zrotation
     JOINT Neck
     {
      OFFSET 0.000000 14.453000 0.000000
      CHANNELS 3 Yrotation Xrotation Zrotation
      JOINT Head
      {
       OFFSET 0.000000 8.936500 -0.011300
       CHANNELS 3 Yrotation Xrotation Zrotation
       End Site
       {
        OFFSET 0.000000 17.073600 -0.006000
       }
      }
     }
     JOINT RightCollar
     {
      OFFSET -2.921100 9.558500 0.000000
      CHANNELS 3 Yrotation Xrotation Zrotation
      JOINT RightShoulder
      {
       OFFSET -13.519700 0.000000 0.000000
       CHANNELS 3 Yrotation Xrotation Zrotation
       JOINT RightElbow
       {
        OFFSET 0.000000 -29.696600 0.000000
        CHANNELS 3 Yrotation Xrotation Zrotation
        JOINT RightWrist
        {
         OFFSET 0.000000 -24.004700 0.000000
         CHANNELS 3 Yrotation Xrotation Zrotation
         End Site
         {
          OFFSET 0.000000 -17.728500 0.000000
         }
        }
       }
      }
     }
     JOINT LeftCollar
     {
      OFFSET 2.921100 9.558500 0.000000
      CHANNELS 3 Yrotation Xrotation Zrotation
      JOINT LeftShoulder
      {
       OFFSET 13.519700 0.000000 0.000000
       CHANNELS 3 Yrotation Xrotation Zrotation
       JOINT LeftElbow
       {
        OFFSET 0.000000 -29.696600 0.000000
        CHANNELS 3 Yrotation Xrotation Zrotation
        JOINT LeftWrist
        {
         OFFSET 0.000000 -24.004700 0.000000
         CHANNELS 3 Yrotation Xrotation Zrotation
         End Site
         {
          OFFSET 0.000000 -17.728500 0.000000
         }
        }
       }
      }
     }
    }
   }
  }
 }
 JOINT RightHip
 {
  OFFSET -7.771700 -0.012900 -0.001300
  CHANNELS 3 Yrotation Xrotation Zrotation
  JOINT RightKnee
  {
   OFFSET 0.000000 -40.869800 0.001200
   CHANNELS 3 Yrotation Xrotation Zrotation
   JOINT RightAnkle
   {
    OFFSET 0.000000 -39.717900 0.002100
    CHANNELS 3 Yrotation Xrotation Zrotation
    JOINT RightToe
    {
     OFFSET 0.000000 -4.965400 11.033500
     CHANNELS 3 Yrotation Xrotation Zrotation
     End Site
     {
      OFFSET 0.000000 -1.423100 5.872300
     }
    }
   }
  }
 }
 JOINT LeftHip
 {
  OFFSET 7.771700 -0.012900 -0.001300
  CHANNELS 3 Yrotation Xrotation Zrotation
  JOINT LeftKnee
  {
   OFFSET 0.000000 -40.869800 0.001200
   CHANNELS 3 Yrotation Xrotation Zrotation
   JOINT LeftAnkle
   {
    OFFSET 0.000000 -39.717900 0.002100
    CHANNELS 3 Yrotation Xrotation Zrotation
    JOINT LeftToe
    {
     OFFSET 0.000000 -4.965400 11.033500
     CHANNELS 3 Yrotation Xrotation Zrotation
     End Site
     {
      OFFSET 0.000000 -1.423100 5.872300
     }
    }
   }
  }
 }
}
MOTION
Frames: 8
Frame Time: 0.008333
0.000000 85.388000 0.000000 0.000000 -5.767877 0.000000 0.000000 11.653817 0.000000 0.000000 -5.885947 0.000000 0.000000 -0.000000 0.000000 0.000000 -0.000000 0.000000 0.000000 12.528835 0.000000 0.000000 0.711642 0.000000 0.000000 -0.000000 0.000000 0.000000 0.000000 -90.000000 0.000000 -2.309062 0.000000 0.000000 2.309062 0.000000 0.000000 -0.000000 0.000000 0.000000 -0.000000 90.000000 0.000000 -2.309062 0.000000 0.000000 2.309062 0.000000 0.000000 8.520406 0.000000 0.000000 1.905762 0.000000 -0.000000 -4.658285 0.000000 0.000000 -0.000000 0.000000 0.000000 8.520406 0.000000 0.000000 1.905762 0.000000 -0.000000 -4.658285 0.000000 0.000000 -0.000000 0.000000
-25.580126 43.541298 25.520403 176.263800 -28.970222 0.542379 -0.946675 18.759279 2.673373 -0.190720 2.331014 0.394560 -0.326318 3.747700 0.626001 -1.111338 16.540942 2.676571 -0.308311 16.999259 -3.836216 0.512006 -7.844207 -3.988599 5.406490 2.700767 -9.224995 -12.889351 -2.293783 -9.018472 -155.083717 -59.552394 179.870141 -6.346386 -0.904514 -41.741246 -3.289775 -0.111440 -2.560508 16.601348 0.832908 5.323442 145.650813 -58.322858 179.363965 15.574148 18.149666 27.673404 0.059689 -62.817726 6.478342 -155.283784 66.349038 -153.726458 -8.897115 -24.240313 7.293393 0.200938 -0.997877 0.144308 5.779291 -46.357821 -1.348206 177.471249 57.078325 177.066705 -2.185031 -42.181936 2.583443 0.020143 0.107149 0.062265
-25.582052 43.540013 25.505788 176.282621 -28.967595 0.536420 -0.952513 18.799682 2.681596 -0.190783 2.328169 0.398796 -0.330449 3.728500 0.620367 -1.097500 16.558293 2.696478 -0.302772 17.001293 -3.842497 0.518521 -7.830234 -3.998892 5.452615 2.719509 -9.200184 -12.955876 -2.341958 -9.054748 -155.151365 -59.577558 179.932852 -6.355798 -0.911050 -41.724666 -3.297178 -0.124856 -2.565499 16.583045 0.815471 5.307038 145.625396 -58.300620 179.358347 15.562171 18.145095 27.653928 0.061705 -62.811238 6.447768 -155.325054 66.333690 -153.754351 -8.887917 -24.264404 7.289241 0.219617 -0.974889 0.133673 5.785642 -46.348179 -1.350195 177.505538 57.069620 177.098797 -2.189390 -42.188632 2.596850 0.022178 0.103548 0.058002
-25.584874 43.536961 25.491894 176.303227 -28.944926 0.531844 -0.962019 18.817278 2.690018 -0.188716 2.325646 0.402450 -0.330574 3.730474 0.621033 -1.090729 16.553670 2.709705 -0.297072 17.000630 -3.849370 0.526295 -7.822442 -4.006544 5.451359 2.697358 -9.212300 -12.954490 -2.332828 -9.073990 -155.209296 -59.572813 179.959722 -6.350456 -0.902444 -41.696653 -3.310993 -0.149611 -2.578355 16.567214 0.810147 5.297281 145.632860 -58.274172 179.327204 15.556479 18.144912 27.643753 0.067468 -62.819902 6.410856 -155.378735 66.326471 -153.794707 -8.891357 -24.307353 7.295817 0.222292 -0.935985 0.117669 5.787968 -46.360752 -1.356479 177.533218 57.058904 177.120499 -2.192929 -42.194435 2.609498 0.022548 0.100371 0.052226
-25.594582 43.536434 25.471475 176.348522 -28.954740 0.556403 -0.996274 18.891238 2.670880 -0.201325 2.277984 0.386895 -0.325156 3.749508 0.629755 -1.086603 16.549004 2.721409 -0.305243 16.983356 -3.864102 0.587287 -7.778186 -4.016625 5.451538 2.678106 -9.225115 -12.930051 -2.305490 -9.083542 -155.313998 -59.558067 -179.989340 -6.343426 -0.893017 -41.667407 -3.325175 -0.171319 -2.591934 16.543948 0.806336 5.286856 145.694145 -58.254258 179.281658 15.537029 18.126080 27.580922 0.130451 -62.795744 6.279080 -155.511993 66.307494 -153.901447 -8.947609 -24.318559 7.293743 0.243933 -0.955973 0.121633 5.808749 -46.328760 -1.416571 177.562205 57.057886 177.132395 -2.204148 -42.199024 2.637532 0.020030 0.097872 0.046851
-25.598140 43.532767 25.456174 176.374617 -28.927887 0.549477 -1.003275 18.909158 2.687716 -0.210087 2.250210 0.378128 -0.318394 3.767022 0.639814 -1.088088 16.544416 2.731087 -0.310331 16.967535 -3.878861 0.610342 -7.768988 -4.024976 5.473822 2.671692 -9.230491 -12.943893 -2.309227 -9.096718 -155.366861 -59.553061 -179.967004 -6.333336 -0.875186 -41.644357 -3.336477 -0.155255 -2.592252 16.526056 0.769048 5.253914 145.749765 -58.243132 179.246186 15.505136 18.122955 27.537955 0.133692 -62.811343 6.240067 -155.597999 66.301672 -153.968103 -8.966626 -24.359337 7.292622 0.245058 -0.931060 0.117461 5.812158 -46.344331 -1.435437 177.565131 57.045714 177.139021 -2.206559 -42.209127 2.640868 0.018250 0.090927 0.048660
-25.601171 43.526244 25.445895 176.371499 -28.867013 0.549819 -0.986342 18.884443 2.707700 -0.201293 2.275918 0.390109 -0.326784 3.738235 0.630919 -1.090050 16.541426 2.744141 -0.301399 16.963742 -3.890830 0.619179 -7.773933 -4.033650 5.496412 2.669730 -9.239990 -12.968443 -2.325396 -9.106237 -155.398050 -59.552388 -179.955646 -6.329179 -0.857820 -41.624871 -3.351171 -0.165850 -2.606434 16.512630 0.753951 5.240928 145.781895 -58.237249 179.233056 15.399859 18.111209 27.543421 0.161586 -62.860503 6.196239 -155.663699 66.313607 -154.020110 -8.938796 -24.397041 7.291254 0.218530 -0.897314 0.102421 5.837107 -46.399694 -1.450259 177.569694 57.030104 177.149289 -2.210786 -42.212350 2.644442 0.020728 0.079390 0.050311
-25.605318 43.522013 25.431644 176.390125 -28.836222 0.546329 -0.991862 18.888684 2.720339 -0.198943 2.284351 0.395321 -0.319435 3.763015 0.647124 -1.112475 16.487047 2.725345 -0.285248 16.975731 -3.887779 0.628957 -7.782211 -4.045348 5.522902 2.680088 -9.238616 -12.987102 -2.340397 -9.114181 -155.431813 -59.556844 -179.943954 -6.331356 -0.855749 -41.614269 -3.360553 -0.162349 -2.610507 16.444346 0.748583 5.220048 145.949818 -58.226995 179.147104 15.416544 18.119524 27.556303 0.169508 -62.887212 6.162339 -155.752435 66.307854 -154.092468 -8.962130 -24.415667 7.287377 0.231336 -0.894886 0.105628 5.846018 -46.415653 -1.465635 177.608173 57.021346 177.182278 -2.203805 -42.234462 2.662783 0.013314 0.099336 0.034528
